<svg xmlns="http://www.w3.org/2000/svg" width="1100" height="800" viewBox="0 0 1100 800" role="img" aria-labelledby="title desc">
  <title id="title">Room collaboration panel controls</title>
  <desc id="desc">Clean annotated schematic of the GEARS XR room panel for joining, sharing, and taking presenter control.</desc>
  <defs>
    <filter id="shadow" x="-15%" y="-15%" width="130%" height="130%"><feDropShadow dx="0" dy="12" stdDeviation="16" flood-color="#0b1220" flood-opacity="0.16"/></filter>
    <style>
      .page { fill: #f5f7fb; }
      .mock { fill: #151b24; stroke: #d6dde8; stroke-width: 2; filter: url(#shadow); }
      .title { fill: #f8fafc; font: 800 27px system-ui, sans-serif; }
      .label { fill: #dce5f2; font: 700 17px system-ui, sans-serif; }
      .muted { fill: #93a4b8; font: 14px system-ui, sans-serif; }
      .field { fill: #0b1119; stroke: #657890; stroke-width: 1.5; }
      .button { fill: #263244; stroke: #7f92aa; stroke-width: 1.5; }
      .buttonText { fill: #f8fafc; font: 800 15px system-ui, sans-serif; }
      .badge { fill: #22b8ff; stroke: #ffffff; stroke-width: 3; }
      .badgeText { fill: white; font: 800 18px system-ui, sans-serif; text-anchor: middle; dominant-baseline: central; }
      .legendCard { fill: #ffffff; stroke: #d8e0ea; stroke-width: 1.5; filter: url(#shadow); }
      .legendTitle { fill: #0f172a; font: 800 18px system-ui, sans-serif; }
      .legendText { fill: #536273; font: 14px system-ui, sans-serif; }
      .tip { fill: #e8f7ff; stroke: #9ddffc; stroke-width: 1.5; }
      .tipText { fill: #075985; font: 700 15px system-ui, sans-serif; }
    </style>
  </defs>
  <rect class="page" width="1100" height="800"/>
  <text x="54" y="62" fill="#0f172a" font="800 28px system-ui, sans-serif">Room panel: share a synchronized view</text>
  <text x="54" y="88" fill="#64748b" font="16px system-ui, sans-serif">Open the collapsed room panel, join a room, copy the link, and manage presenter control.</text>

  <g transform="translate(70 128)">
    <rect class="mock" width="450" height="530" rx="18"/>
    <text class="title" x="28" y="46">Room</text>
    <rect class="button" x="354" y="22" width="70" height="34" rx="6"/>
    <text class="buttonText" x="371" y="44">Hide</text>
    <circle class="badge" cx="430" cy="20" r="18"/><text class="badgeText" x="430" y="21">0</text>

    <text class="label" x="28" y="96">Room</text>
    <rect class="field" x="28" y="114" width="190" height="40" rx="6"/>
    <text class="muted" x="44" y="139">1axcj2</text>
    <rect class="button" x="232" y="114" width="70" height="40" rx="7"/>
    <text class="buttonText" x="250" y="139">Join</text>
    <rect class="button" x="314" y="114" width="80" height="40" rx="7"/>
    <text class="buttonText" x="333" y="139">Leave</text>
    <circle class="badge" cx="22" cy="116" r="18"/><text class="badgeText" x="22" y="117">1</text>
    <circle class="badge" cx="232" cy="116" r="18"/><text class="badgeText" x="232" y="117">2</text>

    <text class="label" x="28" y="196">Name</text>
    <rect class="field" x="28" y="214" width="366" height="40" rx="6"/>
    <text class="muted" x="44" y="239">Kenichi</text>
    <text class="label" x="28" y="296">Room server</text>
    <rect class="field" x="28" y="314" width="366" height="40" rx="6"/>
    <text class="muted" x="44" y="339">wss://vr-md-viewer-room...</text>
    <circle class="badge" cx="22" cy="216" r="18"/><text class="badgeText" x="22" y="217">3</text>

    <text class="label" x="28" y="396">Share</text>
    <rect class="field" x="28" y="414" width="274" height="40" rx="6"/>
    <text class="muted" x="44" y="439">https://.../?room=1axcj2</text>
    <rect class="button" x="314" y="414" width="80" height="40" rx="7"/>
    <text class="buttonText" x="336" y="439">Copy</text>
    <circle class="badge" cx="314" cy="416" r="18"/><text class="badgeText" x="314" y="417">4</text>

    <rect class="button" x="58" y="474" width="154" height="40" rx="7"/>
    <text class="buttonText" x="78" y="499">Take Presenter</text>
    <text class="muted" x="232" y="499">Presenter | 2 users</text>
    <circle class="badge" cx="32" cy="494" r="18"/><text class="badgeText" x="32" y="495">5</text>
  </g>

  <g transform="translate(586 128)">
    <rect class="legendCard" width="438" height="530" rx="18"/>
    <text class="legendTitle" x="30" y="42">Button guide</text>
    <g transform="translate(30 76)">
      <circle class="badge" cx="16" cy="16" r="16"/><text class="badgeText" x="16" y="17">0</text>
      <text class="legendTitle" x="48" y="14">Show / Hide</text>
      <text class="legendText" x="48" y="38">The room panel starts collapsed.</text>
    </g>
    <g transform="translate(30 140)">
      <circle class="badge" cx="16" cy="16" r="16"/><text class="badgeText" x="16" y="17">1</text>
      <text class="legendTitle" x="48" y="14">Room code</text>
      <text class="legendText" x="48" y="38">Use the same code on each browser.</text>
    </g>
    <g transform="translate(30 204)">
      <circle class="badge" cx="16" cy="16" r="16"/><text class="badgeText" x="16" y="17">2</text>
      <text class="legendTitle" x="48" y="14">Join / Leave</text>
      <text class="legendText" x="48" y="38">Connect or disconnect from the room.</text>
    </g>
    <g transform="translate(30 268)">
      <circle class="badge" cx="16" cy="16" r="16"/><text class="badgeText" x="16" y="17">3</text>
      <text class="legendTitle" x="48" y="14">Name and server</text>
      <text class="legendText" x="48" y="38">Use wss:// on the hosted app.</text>
    </g>
    <g transform="translate(30 332)">
      <circle class="badge" cx="16" cy="16" r="16"/><text class="badgeText" x="16" y="17">4</text>
      <text class="legendTitle" x="48" y="14">Copy share link</text>
      <text class="legendText" x="48" y="38">Send the link to another user.</text>
    </g>
    <g transform="translate(30 396)">
      <circle class="badge" cx="16" cy="16" r="16"/><text class="badgeText" x="16" y="17">5</text>
      <text class="legendTitle" x="48" y="14">Take Presenter</text>
      <text class="legendText" x="48" y="38">Presenter controls frame, view, and transform.</text>
    </g>
  </g>

  <g transform="translate(70 694)">
    <rect class="tip" width="954" height="58" rx="14"/>
    <text class="tipText" x="24" y="36">Only lightweight viewing state is shared. Each browser loads the XYZ file locally from the URL.</text>
  </g>
</svg>
